# xmcd CD database file
#
# Track frame offsets:
#	150
#	25050
#	50177
#	76415
#	101807
#	126922
#	146205
#	165752
#	184287
#
# Disc length: 2773 seconds
#
# Revision: 7
# Processed by: cddbd v1.5.2PL0 Copyright (c) Steve Scherf et al.
# Submitted via: jetAudio 7
#
DISCID=7b0ad309
DTITLE=MILLI VANILLI - The Remix Album
DYEAR=1990
DGENRE=Electronic, Hip-Hop, Pop
TTITLE0=Girl You Know It's True
TTITLE1=Baby Don't Forget My Number
TTITLE2=Blame It On The Rain
TTITLE3=All Or Nothing
TTITLE4=Money
TTITLE5=Hush
TTITLE6=Can't You Feel My Love
TTITLE7=Boy In The Tree
TTITLE8=Girl I'm Gonna Miss You
EXTD=
EXTT0=
EXTT1=
EXTT2=
EXTT3=
EXTT4=
EXTT5=
EXTT6=
EXTT7=
EXTT8=
PLAYORDER=
